HIERARCHY
ROOT Hips
{
	OFFSET -0.179506 -22.333345 2.821913
	CHANNELS 6 Xposition Yposition Zposition Zrotation Yrotation Xrotation 
	JOINT LeftUpLeg
	{
		OFFSET 6.951974 -9.140623 -0.681533
		CHANNELS 3 Zrotation Yrotation Xrotation
		JOINT LeftLeg
		{
			OFFSET 3.427654 -37.519855 -0.449580
			CHANNELS 3 Zrotation Yrotation Xrotation
			JOINT LeftFoot
			{
				OFFSET -1.359570 -39.796059 -4.369333
				CHANNELS 3 Zrotation Yrotation Xrotation
				JOINT LeftToe
				{
					OFFSET 2.635814 -5.579078 11.928840
					CHANNELS 3 Zrotation Yrotation Xrotation
					End Site
					{
						OFFSET 0.000000 0.000000 0.000000
					}
				}
			}
		}
	}
	JOINT RightUpLeg
	{
		OFFSET -6.767048 -9.052170 -0.431982
		CHANNELS 3 Zrotation Yrotation Xrotation
		JOINT RightLeg
		{
			OFFSET -3.829005 -38.256897 -0.885003
			CHANNELS 3 Zrotation Yrotation Xrotation
			JOINT RightFoot
			{
				OFFSET 1.577377 -39.841461 -4.231180
				CHANNELS 3 Zrotation Yrotation Xrotation
				JOINT RightToe
				{
					OFFSET -2.537174 -4.814398 12.334795
					CHANNELS 3 Zrotation Yrotation Xrotation
					End Site
					{
						OFFSET 0.000000 0.000000 0.000000
					}
				}
			}
		}
	}
	JOINT Spine
	{
		OFFSET -0.253288 10.896323 -2.669631
		CHANNELS 3 Zrotation Yrotation Xrotation
		JOINT Spine1
		{
			OFFSET 0.548704 13.518043 0.109247
			CHANNELS 3 Zrotation Yrotation Xrotation
			JOINT Spine2
			{
				OFFSET 0.145701 5.292222 2.542457
				CHANNELS 3 Zrotation Yrotation Xrotation
				JOINT Neck
				{
					OFFSET -0.277840 21.387037 -4.285703
					CHANNELS 3 Zrotation Yrotation Xrotation
					JOINT Head
					{
						OFFSET 0.515184 6.496960 5.134897
						CHANNELS 3 Zrotation Yrotation Xrotation
						End Site
						{
							OFFSET 0.000000 0.000000 0.000000
						}
					}
				}
				JOINT LeftShoulder
				{
					OFFSET 7.884473 12.174932 -3.408961
					CHANNELS 3 Zrotation Yrotation Xrotation
					JOINT LeftArm
					{
						OFFSET 9.097692 3.046888 -0.886815
						CHANNELS 3 Zrotation Yrotation Xrotation
						JOINT LeftForeArm
						{
							OFFSET 25.961220 -1.277207 -2.745643
							CHANNELS 3 Zrotation Yrotation Xrotation
							JOINT LeftHand
							{
								OFFSET 24.923361 0.898606 -0.117091
								CHANNELS 3 Zrotation Yrotation Xrotation
								End Site
								{
									OFFSET 0.000000 0.000000 0.000000
								}
							}
						}
					}
				}
				JOINT RightShoulder
				{
					OFFSET -8.175920 11.883285 -3.861528
					CHANNELS 3 Zrotation Yrotation Xrotation
					JOINT RightArm
					{
						OFFSET -9.601238 3.255117 -0.914307
						CHANNELS 3 Zrotation Yrotation Xrotation
						JOINT RightForeArm
						{
							OFFSET -25.374195 -1.332924 -2.140099
							CHANNELS 3 Zrotation Yrotation Xrotation
							JOINT RightHand
							{
								OFFSET -25.529810 0.777228 -0.555919
								CHANNELS 3 Zrotation Yrotation Xrotation
								End Site
								{
									OFFSET 0.000000 0.000000 0.000000
								}
							}
						}
					}
				}
			}
		}
	}
}
MOTION
Frames: 5
Frame Time: 0.033333
20.458616 109.378922 -12.390695 -5.360727 45.053139 3.174531 11.776268 0.573030 -34.955349 -4.101250 -1.061001 30.509450 -4.086619 9.480118 0.848442 1.369388 0.680196 -1.330535 -6.831319 -2.436846 -29.335161 1.786310 -1.254006 24.336886 9.020977 -4.235535 5.184465 4.048166 -1.380739 -0.422833 -0.550044 1.597060 26.895391 -0.799676 -1.566960 0.053135 2.871734 -0.582448 0.106870 -5.035558 5.325763 -0.648919 8.279860 10.186125 -8.349019 -17.549908 -1.111037 2.260098 -22.192291 -1.566561 -5.311235 27.433929 -47.827827 -33.463405 20.002188 -13.607097 -14.243708 10.863508 1.538402 4.969818 32.544045 -6.666196 0.904938 -11.785349 46.912059 -12.873939 -9.702772 13.284789 -12.047356 
20.601030 104.665047 -9.582064 -6.428755 47.602234 1.898844 7.525891 -3.924524 -33.646624 -4.296147 -0.976431 33.701080 -0.258605 10.914777 -9.731043 2.691367 0.850850 -1.717530 -3.382302 2.493622 -27.819716 0.974132 -0.099502 27.857355 4.591986 -4.095096 -7.421519 4.960232 -1.839783 -0.232852 -0.506826 1.937644 25.815178 0.726162 -2.515336 1.843444 1.887502 -0.047632 -1.113698 -3.375474 5.545346 -2.520927 7.873518 9.550455 -7.281709 -21.810497 -2.817340 3.582651 -32.395392 -6.317598 -1.576496 25.036040 -45.696978 -28.048978 16.991162 -13.903765 -16.033571 14.810502 4.387530 5.377344 40.468148 -3.904000 5.647752 -10.798732 48.156247 -7.489102 -8.767036 13.486668 -10.482573 
20.616903 99.750381 -8.233077 -9.298248 50.054750 -0.501086 5.791640 -7.281406 -35.587883 -3.586527 -0.679068 40.738846 3.576720 13.829193 -23.130155 4.621577 1.096049 -1.871078 -0.511010 6.636534 -29.722676 0.240345 -0.402561 39.426667 0.066324 -6.515509 -22.344086 5.758169 -2.093433 -0.222940 -1.554687 2.918910 24.913774 2.644372 -3.492967 2.938997 1.167518 0.468679 -1.873137 -0.849912 8.931650 -4.843939 6.255424 8.573577 -8.320064 -25.522893 -4.892297 4.963641 -41.745888 -9.481608 4.314359 14.759098 -37.623712 -14.509073 14.508405 -13.393576 -14.426244 19.754602 7.896852 4.554612 46.981929 1.320976 10.529246 -12.857114 50.065509 -4.275727 -9.902294 13.346793 -12.708626 
20.791929 97.633232 -7.035411 -10.726214 52.167417 -2.909494 4.942151 -8.556217 -35.750253 -3.403636 -2.427557 44.807401 5.301613 15.393146 -28.631647 5.123394 0.948411 -1.798329 0.681706 7.969300 -29.305512 0.364192 1.280499 43.406059 -1.515198 -8.051910 -27.128378 5.738623 -1.974014 -0.315039 -1.639991 3.461874 24.206866 3.051049 -3.286632 3.422659 0.719429 0.652009 -1.567303 -0.023062 10.770820 -6.449579 4.098923 8.461318 -7.224185 -27.113931 -4.573081 5.609981 -47.831577 -7.751825 9.379779 5.316498 -28.783527 -1.678138 8.821754 -12.779126 -11.126981 21.066313 10.512387 2.640866 50.011034 7.292998 13.493308 -18.053266 54.606727 -8.128039 -10.073262 12.933909 -18.633969 
19.840765 99.512199 -4.433807 -9.227455 52.847680 -2.092782 4.124843 -8.588616 -30.431857 -2.425740 -4.758858 37.520264 3.976373 13.132407 -24.987893 5.435494 1.267559 -1.833494 1.763031 6.978907 -22.031693 0.480103 2.969642 32.600022 -2.612204 -6.234007 -23.311653 7.421789 -2.787627 -0.585517 -1.302438 4.546494 20.421394 2.870896 -2.138146 4.496647 0.246097 0.943876 -1.549625 1.604137 11.323839 -4.276156 3.197903 8.238577 -3.446204 -27.463693 -0.074852 6.587184 -50.930143 -0.264913 11.574344 -0.862882 -29.614887 8.006400 3.982882 -13.972171 -10.577873 17.601084 10.609466 0.576461 53.007922 11.602096 15.824724 -38.399162 72.656224 -26.885290 -13.068646 12.471616 -29.419922 
